<svg viewBox="0 0 512 512" xmlns="http://www.w3.org/2000/svg"><path d="m471.95 253.05c0 120.9-98.006 218.91-218.91 218.91s-218.91-98.006-218.91-218.91 98.006-218.91 218.91-218.91 218.91 98.006 218.91 218.91" fill="#0078ad" fill-rule="evenodd"/><path d="m256 1c-140.83 0-255 114.17-255 255s114.17 255 255 255 255-114.17 255-255-114.17-255-255-255m8.827 44.931c120.9 0 218.9 98 218.9 218.9s-98 218.9-218.9 218.9-218.93-98-218.93-218.9 98.03-218.9 218.93-218.9" fill-opacity=".067" fill-rule="evenodd"/><path d="m256 4.43c-138.94 0-251.57 112.63-251.57 251.57s112.63 251.57 251.57 251.57 251.57-112.63 251.57-251.57-112.63-251.57-251.57-251.57m5.885 38.556c120.9 0 218.9 98 218.9 218.9s-98 218.9-218.9 218.9-218.93-98-218.93-218.9 98.03-218.9 218.93-218.9" fill-opacity=".129" fill-rule="evenodd"/><path d="m256 8.36c-136.77 0-247.64 110.87-247.64 247.64s110.87 247.64 247.64 247.64 247.64-110.87 247.64-247.64-110.87-247.64-247.64-247.64m2.942 31.691c120.9 0 218.9 98 218.9 218.9s-98 218.9-218.9 218.9-218.93-98-218.93-218.9 98.03-218.9 218.93-218.9" fill-opacity=".129" fill-rule="evenodd"/><path d="m253.04 7.86c-135.42 0-245.19 109.78-245.19 245.19 0 135.42 109.78 245.19 245.19 245.19 135.42 0 245.19-109.78 245.19-245.19 0-135.42-109.78-245.19-245.19-245.19zm0 26.297c120.9 0 218.9 98 218.9 218.9s-98 218.9-218.9 218.9-218.93-98-218.93-218.9 98.03-218.9 218.93-218.9z" fill="#fff" fill-rule="evenodd" stroke="#000" stroke-opacity=".31" stroke-width="4.904"/><text x="729.64001" y="231.35997"><tspan x="729.64001" y="231.35997"/></text><text transform="scale(4.0128 .2492)" x="378.90805" y="579.25812"/><text x="1310.91" y="151.35997"><tspan x="1310.91" y="151.35997"/></text><text transform="scale(4.0128 .2492)" x="523.75732" y="258.21997"/><text x="239.33" y="-29.900009"><tspan x="239.33" y="-29.900009"/></text><text transform="scale(4.0128 .2492)" x="256.71869" y="-469.1264"/><text x="1337.38" y="-246.37001"><tspan x="1337.38" y="-246.37001"/></text><text transform="scale(4.0128 .2492)" x="530.3573" y="-1337.802"/><text x="1918.65" y="-326.37"><tspan x="1918.65" y="-326.37"/></text><text transform="scale(4.0128 .2492)" x="675.20654" y="-1658.8303"/><text x="1529.53" y="-798.77002"><tspan x="1529.53" y="-798.77002"/></text><text transform="scale(4.0128 .2492)" x="578.237" y="-3554.4807"/><text x="2110.79" y="-878.78003"><tspan x="2110.79" y="-878.78003"/></text><text transform="scale(4.0128 .2492)" x="723.0863" y="-3875.519"/><text x="277.98999" y="535.94006"><tspan x="277.98999" y="535.94006"/></text><text x="-68.858757" y="-27.776562"><tspan x="-68.858757" y="-27.776562"/></text><text transform="scale(4.0128 .2492)" x="179.92113" y="-460.61026"/><text x="512.41125" y="-107.77656"><tspan x="512.41125" y="-107.77656"/></text><text transform="scale(4.0128 .2492)" x="324.77042" y="-781.64844"/><text x="-559.16882" y="-289.03656"><tspan x="-559.16882" y="-289.03656"/></text><text transform="scale(4.0128 .2492)" x="57.731766" y="-1508.9949"/><text x="538.88123" y="-505.50656"><tspan x="538.88123" y="-505.50656"/></text><text transform="scale(4.0128 .2492)" x="331.37039" y="-2377.6704"/><text x="1120.1512" y="-585.50653"><tspan x="1120.1512" y="-585.50653"/></text><text transform="scale(4.0128 .2492)" x="476.2196" y="-2698.6987"/><text x="731.03125" y="-1057.9066"><tspan x="731.03125" y="-1057.9066"/></text><text transform="scale(4.0128 .2492)" x="379.25009" y="-4594.3491"/><text x="1312.2913" y="-1137.9166"><tspan x="1312.2913" y="-1137.9166"/></text><text transform="scale(4.0128 .2492)" x="524.09937" y="-4915.3872"/><text x="-520.50879" y="276.80353"><tspan x="-520.50879" y="276.80353"/></text><text x="-68.858757" y="-27.776562"><tspan x="-68.858757" y="-27.776562"/></text><text transform="scale(4.0128 .2492)" x="179.92113" y="-460.61026"/><text x="512.41125" y="-107.77656"><tspan x="512.41125" y="-107.77656"/></text><text transform="scale(4.0128 .2492)" x="324.77042" y="-781.64844"/><text x="-559.16882" y="-289.03656"><tspan x="-559.16882" y="-289.03656"/></text><text transform="scale(4.0128 .2492)" x="57.731766" y="-1508.9949"/><text x="538.88123" y="-505.50656"><tspan x="538.88123" y="-505.50656"/></text><text transform="scale(4.0128 .2492)" x="331.37039" y="-2377.6704"/><text x="1120.1512" y="-585.50653"><tspan x="1120.1512" y="-585.50653"/></text><text transform="scale(4.0128 .2492)" x="476.2196" y="-2698.6987"/><text x="731.03125" y="-1057.9066"><tspan x="731.03125" y="-1057.9066"/></text><text transform="scale(4.0128 .2492)" x="379.25009" y="-4594.3491"/><text x="1312.2913" y="-1137.9166"><tspan x="1312.2913" y="-1137.9166"/></text><text transform="scale(4.0128 .2492)" x="524.09937" y="-4915.3872"/><text x="-520.50879" y="276.80353"><tspan x="-520.50879" y="276.80353"/></text><text x="-31.851492" y="812.78375"><tspan x="-31.851492" y="812.78375"/></text><text transform="scale(4.0128 .2492)" x="189.14342" y="2912.3962"/><text x="549.41858" y="732.78375"><tspan x="549.41858" y="732.78375"/></text><text transform="scale(4.0128 .2492)" x="333.99268" y="2591.3679"/><text x="-522.1615" y="551.52277"><tspan x="-522.1615" y="551.52277"/></text><text transform="scale(4.0128 .2492)" x="66.954041" y="1864.0115"/><text x="575.88855" y="335.05371"><tspan x="575.88855" y="335.05371"/></text><text transform="scale(4.0128 .2492)" x="340.59262" y="995.34589"/><text x="1157.1586" y="255.04372"><tspan x="1157.1586" y="255.04372"/></text><text transform="scale(4.0128 .2492)" x="485.44193" y="674.30762"/><text x="768.03857" y="-217.35629"><tspan x="768.03857" y="-217.35629"/></text><text transform="scale(4.0128 .2492)" x="388.47238" y="-1221.3428"/><text x="1349.2986" y="-297.35632"><tspan x="1349.2986" y="-297.35632"/></text><text transform="scale(4.0128 .2492)" x="533.32172" y="-1542.3712"/><g transform="translate(-761.49 581.42)"><text x="277.98999" y="535.94"><tspan x="277.98999" y="535.94"/></text><text x="-860.84003" y="11.553"><tspan x="-860.84003" y="11.553"/></text><text x="-3219.6699" y="289.67001"><tspan x="-3219.6699" y="289.67001"/></text><text x="-2931.46" y="62.380001"><tspan x="-2931.46" y="62.380001"/></text><text x="1263.14" y="-194.52"><tspan x="1263.14" y="-194.52"/></text><text x="-864.78998" y="-49.48"><tspan x="-864.78998" y="-49.48"/></text><text x="-3223.6201" y="228.64"><tspan x="-3223.6201" y="228.64"/></text><text x="-2935.4099" y="1.35"><tspan x="-2935.4099" y="1.35"/></text></g><text x="-68.858757" y="-27.776562"><tspan x="-68.858757" y="-27.776562"/></text><text transform="scale(4.0128 .2492)" x="179.92113" y="-460.61026"/><text x="512.41125" y="-107.77656"><tspan x="512.41125" y="-107.77656"/></text><text transform="scale(4.0128 .2492)" x="324.77042" y="-781.64844"/><text x="-559.16882" y="-289.03656"><tspan x="-559.16882" y="-289.03656"/></text><text transform="scale(4.0128 .2492)" x="57.731766" y="-1508.9949"/><text x="538.88123" y="-505.50656"><tspan x="538.88123" y="-505.50656"/></text><text transform="scale(4.0128 .2492)" x="331.37039" y="-2377.6704"/><text x="1120.1512" y="-585.50653"><tspan x="1120.1512" y="-585.50653"/></text><text transform="scale(4.0128 .2492)" x="476.2196" y="-2698.6987"/><text x="731.03125" y="-1057.9066"><tspan x="731.03125" y="-1057.9066"/></text><text transform="scale(4.0128 .2492)" x="379.25009" y="-4594.3491"/><text x="1312.2913" y="-1137.9166"><tspan x="1312.2913" y="-1137.9166"/></text><text transform="scale(4.0128 .2492)" x="524.09937" y="-4915.3872"/><text x="-520.50879" y="276.80353"><tspan x="-520.50879" y="276.80353"/></text><text x="-68.858757" y="-27.776562"><tspan x="-68.858757" y="-27.776562"/></text><text transform="scale(4.0128 .2492)" x="179.92113" y="-460.61026"/><text x="512.41125" y="-107.77656"><tspan x="512.41125" y="-107.77656"/></text><text transform="scale(4.0128 .2492)" x="324.77042" y="-781.64844"/><text x="-559.16882" y="-289.03656"><tspan x="-559.16882" y="-289.03656"/></text><text transform="scale(4.0128 .2492)" x="57.731766" y="-1508.9949"/><text x="538.88123" y="-505.50656"><tspan x="538.88123" y="-505.50656"/></text><text transform="scale(4.0128 .2492)" x="331.37039" y="-2377.6704"/><text x="1120.1512" y="-585.50653"><tspan x="1120.1512" y="-585.50653"/></text><text transform="scale(4.0128 .2492)" x="476.2196" y="-2698.6987"/><text x="731.03125" y="-1057.9066"><tspan x="731.03125" y="-1057.9066"/></text><text transform="scale(4.0128 .2492)" x="379.25009" y="-4594.3491"/><text x="1312.2913" y="-1137.9166"><tspan x="1312.2913" y="-1137.9166"/></text><text transform="scale(4.0128 .2492)" x="524.09937" y="-4915.3872"/><text x="-520.50879" y="276.80353"><tspan x="-520.50879" y="276.80353"/></text><text x="-31.851492" y="812.78375"><tspan x="-31.851492" y="812.78375"/></text><text transform="scale(4.0128 .2492)" x="189.14342" y="2912.3962"/><text x="549.41858" y="732.78375"><tspan x="549.41858" y="732.78375"/></text><text transform="scale(4.0128 .2492)" x="333.99268" y="2591.3679"/><text x="-522.1615" y="551.52277"><tspan x="-522.1615" y="551.52277"/></text><text transform="scale(4.0128 .2492)" x="66.954041" y="1864.0115"/><text x="575.88855" y="335.05371"><tspan x="575.88855" y="335.05371"/></text><text transform="scale(4.0128 .2492)" x="340.59262" y="995.34589"/><text x="1157.1586" y="255.04372"><tspan x="1157.1586" y="255.04372"/></text><text transform="scale(4.0128 .2492)" x="485.44193" y="674.30762"/><text x="768.03857" y="-217.35629"><tspan x="768.03857" y="-217.35629"/></text><text transform="scale(4.0128 .2492)" x="388.47238" y="-1221.3428"/><text x="1349.2986" y="-297.35632"><tspan x="1349.2986" y="-297.35632"/></text><text transform="scale(4.0128 .2492)" x="533.32172" y="-1542.3712"/><g transform="translate(-761.49 581.42)"><text x="277.98999" y="535.94"><tspan x="277.98999" y="535.94"/></text><text x="-860.84003" y="11.553"><tspan x="-860.84003" y="11.553"/></text><text x="-3219.6699" y="289.67001"><tspan x="-3219.6699" y="289.67001"/></text><text x="-2931.46" y="62.380001"><tspan x="-2931.46" y="62.380001"/></text><text x="1263.14" y="-194.52"><tspan x="1263.14" y="-194.52"/></text><text x="-864.78998" y="-49.48"><tspan x="-864.78998" y="-49.48"/></text><text x="-3223.6201" y="228.64"><tspan x="-3223.6201" y="228.64"/></text><text x="-2935.4099" y="1.35"><tspan x="-2935.4099" y="1.35"/></text></g><text x="-68.858757" y="-27.776562"><tspan x="-68.858757" y="-27.776562"/></text><text transform="scale(4.0128 .2492)" x="179.92113" y="-460.61026"/><text x="512.41125" y="-107.77656"><tspan x="512.41125" y="-107.77656"/></text><text transform="scale(4.0128 .2492)" x="324.77042" y="-781.64844"/><text x="-559.16882" y="-289.03656"><tspan x="-559.16882" y="-289.03656"/></text><text transform="scale(4.0128 .2492)" x="57.731766" y="-1508.9949"/><text x="538.88123" y="-505.50656"><tspan x="538.88123" y="-505.50656"/></text><text transform="scale(4.0128 .2492)" x="331.37039" y="-2377.6704"/><text x="1120.1512" y="-585.50653"><tspan x="1120.1512" y="-585.50653"/></text><text transform="scale(4.0128 .2492)" x="476.2196" y="-2698.6987"/><text x="731.03125" y="-1057.9066"><tspan x="731.03125" y="-1057.9066"/></text><text transform="scale(4.0128 .2492)" x="379.25009" y="-4594.3491"/><text x="1312.2913" y="-1137.9166"><tspan x="1312.2913" y="-1137.9166"/></text><text transform="scale(4.0128 .2492)" x="524.09937" y="-4915.3872"/><text x="-520.50879" y="276.80353"><tspan x="-520.50879" y="276.80353"/></text><text x="-68.858757" y="-27.776562"><tspan x="-68.858757" y="-27.776562"/></text><text transform="scale(4.0128 .2492)" x="179.92113" y="-460.61026"/><text x="512.41125" y="-107.77656"><tspan x="512.41125" y="-107.77656"/></text><text transform="scale(4.0128 .2492)" x="324.77042" y="-781.64844"/><text x="-559.16882" y="-289.03656"><tspan x="-559.16882" y="-289.03656"/></text><text transform="scale(4.0128 .2492)" x="57.731766" y="-1508.9949"/><text x="538.88123" y="-505.50656"><tspan x="538.88123" y="-505.50656"/></text><text transform="scale(4.0128 .2492)" x="331.37039" y="-2377.6704"/><text x="1120.1512" y="-585.50653"><tspan x="1120.1512" y="-585.50653"/></text><text transform="scale(4.0128 .2492)" x="476.2196" y="-2698.6987"/><text x="731.03125" y="-1057.9066"><tspan x="731.03125" y="-1057.9066"/></text><text transform="scale(4.0128 .2492)" x="379.25009" y="-4594.3491"/><text x="1312.2913" y="-1137.9166"><tspan x="1312.2913" y="-1137.9166"/></text><text transform="scale(4.0128 .2492)" x="524.09937" y="-4915.3872"/><text x="-520.50879" y="276.80353"><tspan x="-520.50879" y="276.80353"/></text><text x="-31.851492" y="812.78375"><tspan x="-31.851492" y="812.78375"/></text><text transform="scale(4.0128 .2492)" x="189.14342" y="2912.3962"/><text x="549.41858" y="732.78375"><tspan x="549.41858" y="732.78375"/></text><text transform="scale(4.0128 .2492)" x="333.99268" y="2591.3679"/><text x="-522.1615" y="551.52277"><tspan x="-522.1615" y="551.52277"/></text><text transform="scale(4.0128 .2492)" x="66.954041" y="1864.0115"/><text x="575.88855" y="335.05371"><tspan x="575.88855" y="335.05371"/></text><text transform="scale(4.0128 .2492)" x="340.59262" y="995.34589"/><text x="1157.1586" y="255.04372"><tspan x="1157.1586" y="255.04372"/></text><text transform="scale(4.0128 .2492)" x="485.44193" y="674.30762"/><text x="768.03857" y="-217.35629"><tspan x="768.03857" y="-217.35629"/></text><text transform="scale(4.0128 .2492)" x="388.47238" y="-1221.3428"/><text x="1349.2986" y="-297.35632"><tspan x="1349.2986" y="-297.35632"/></text><text transform="scale(4.0128 .2492)" x="533.32172" y="-1542.3712"/><g transform="translate(-761.49 581.42)"><text x="277.98999" y="535.94"><tspan x="277.98999" y="535.94"/></text><text x="-860.84003" y="11.553"><tspan x="-860.84003" y="11.553"/></text><text x="-3219.6699" y="289.67001"><tspan x="-3219.6699" y="289.67001"/></text><text x="-2931.46" y="62.380001"><tspan x="-2931.46" y="62.380001"/></text><text x="1263.14" y="-194.52"><tspan x="1263.14" y="-194.52"/></text><text x="-864.78998" y="-49.48"><tspan x="-864.78998" y="-49.48"/></text><text x="-3223.6201" y="228.64"><tspan x="-3223.6201" y="228.64"/></text><text x="-2935.4099" y="1.35"><tspan x="-2935.4099" y="1.35"/></text></g><text x="729.64001" y="231.35997"><tspan x="729.64001" y="231.35997"/></text><text transform="scale(4.0128 .2492)" x="378.90805" y="579.25812"/><text x="1310.91" y="151.35997"><tspan x="1310.91" y="151.35997"/></text><text transform="scale(4.0128 .2492)" x="523.75732" y="258.21997"/><text x="239.33" y="-29.900009"><tspan x="239.33" y="-29.900009"/></text><text transform="scale(4.0128 .2492)" x="256.71869" y="-469.1264"/><text x="1337.38" y="-246.37001"><tspan x="1337.38" y="-246.37001"/></text><text transform="scale(4.0128 .2492)" x="530.3573" y="-1337.802"/><text x="1918.65" y="-326.37"><tspan x="1918.65" y="-326.37"/></text><text transform="scale(4.0128 .2492)" x="675.20654" y="-1658.8303"/><text x="1529.53" y="-798.77002"><tspan x="1529.53" y="-798.77002"/></text><text transform="scale(4.0128 .2492)" x="578.237" y="-3554.4807"/><text x="2110.79" y="-878.78003"><tspan x="2110.79" y="-878.78003"/></text><text transform="scale(4.0128 .2492)" x="723.0863" y="-3875.519"/><text x="277.98999" y="535.94006"><tspan x="277.98999" y="535.94006"/></text><text x="-68.858757" y="-27.776562"><tspan x="-68.858757" y="-27.776562"/></text><text transform="scale(4.0128 .2492)" x="179.92113" y="-460.61026"/><text x="512.41125" y="-107.77656"><tspan x="512.41125" y="-107.77656"/></text><text transform="scale(4.0128 .2492)" x="324.77042" y="-781.64844"/><text x="-559.16882" y="-289.03656"><tspan x="-559.16882" y="-289.03656"/></text><text transform="scale(4.0128 .2492)" x="57.731766" y="-1508.9949"/><text x="538.88123" y="-505.50656"><tspan x="538.88123" y="-505.50656"/></text><text transform="scale(4.0128 .2492)" x="331.37039" y="-2377.6704"/><text x="1120.1512" y="-585.50653"><tspan x="1120.1512" y="-585.50653"/></text><text transform="scale(4.0128 .2492)" x="476.2196" y="-2698.6987"/><text x="731.03125" y="-1057.9066"><tspan x="731.03125" y="-1057.9066"/></text><text transform="scale(4.0128 .2492)" x="379.25009" y="-4594.3491"/><text x="1312.2913" y="-1137.9166"><tspan x="1312.2913" y="-1137.9166"/></text><text transform="scale(4.0128 .2492)" x="524.09937" y="-4915.3872"/><text x="-520.50879" y="276.80353"><tspan x="-520.50879" y="276.80353"/></text><text x="-68.858757" y="-27.776562"><tspan x="-68.858757" y="-27.776562"/></text><text transform="scale(4.0128 .2492)" x="179.92113" y="-460.61026"/><text x="512.41125" y="-107.77656"><tspan x="512.41125" y="-107.77656"/></text><text transform="scale(4.0128 .2492)" x="324.77042" y="-781.64844"/><text x="-559.16882" y="-289.03656"><tspan x="-559.16882" y="-289.03656"/></text><text transform="scale(4.0128 .2492)" x="57.731766" y="-1508.9949"/><text x="538.88123" y="-505.50656"><tspan x="538.88123" y="-505.50656"/></text><text transform="scale(4.0128 .2492)" x="331.37039" y="-2377.6704"/><text x="1120.1512" y="-585.50653"><tspan x="1120.1512" y="-585.50653"/></text><text transform="scale(4.0128 .2492)" x="476.2196" y="-2698.6987"/><text x="731.03125" y="-1057.9066"><tspan x="731.03125" y="-1057.9066"/></text><text transform="scale(4.0128 .2492)" x="379.25009" y="-4594.3491"/><text x="1312.2913" y="-1137.9166"><tspan x="1312.2913" y="-1137.9166"/></text><text transform="scale(4.0128 .2492)" x="524.09937" y="-4915.3872"/><text x="-520.50879" y="276.80353"><tspan x="-520.50879" y="276.80353"/></text><text x="-31.851492" y="812.78375"><tspan x="-31.851492" y="812.78375"/></text><text transform="scale(4.0128 .2492)" x="189.14342" y="2912.3962"/><text x="549.41858" y="732.78375"><tspan x="549.41858" y="732.78375"/></text><text transform="scale(4.0128 .2492)" x="333.99268" y="2591.3679"/><text x="-522.1615" y="551.52277"><tspan x="-522.1615" y="551.52277"/></text><text transform="scale(4.0128 .2492)" x="66.954041" y="1864.0115"/><text x="575.88855" y="335.05371"><tspan x="575.88855" y="335.05371"/></text><text transform="scale(4.0128 .2492)" x="340.59262" y="995.34589"/><text x="1157.1586" y="255.04372"><tspan x="1157.1586" y="255.04372"/></text><text transform="scale(4.0128 .2492)" x="485.44193" y="674.30762"/><text x="768.03857" y="-217.35629"><tspan x="768.03857" y="-217.35629"/></text><text transform="scale(4.0128 .2492)" x="388.47238" y="-1221.3428"/><text x="1349.2986" y="-297.35632"><tspan x="1349.2986" y="-297.35632"/></text><text transform="scale(4.0128 .2492)" x="533.32172" y="-1542.3712"/><g transform="translate(-761.49 581.42)"><text x="277.98999" y="535.94"><tspan x="277.98999" y="535.94"/></text><text x="-860.84003" y="11.553"><tspan x="-860.84003" y="11.553"/></text><text x="-3219.6699" y="289.67001"><tspan x="-3219.6699" y="289.67001"/></text><text x="-2931.46" y="62.380001"><tspan x="-2931.46" y="62.380001"/></text><text x="1263.14" y="-194.52"><tspan x="1263.14" y="-194.52"/></text><text x="-864.78998" y="-49.48"><tspan x="-864.78998" y="-49.48"/></text><text x="-3223.6201" y="228.64"><tspan x="-3223.6201" y="228.64"/></text><text x="-2935.4099" y="1.35"><tspan x="-2935.4099" y="1.35"/></text></g><text x="-68.858757" y="-27.776562"><tspan x="-68.858757" y="-27.776562"/></text><text transform="scale(4.0128 .2492)" x="179.92113" y="-460.61026"/><text x="512.41125" y="-107.77656"><tspan x="512.41125" y="-107.77656"/></text><text transform="scale(4.0128 .2492)" x="324.77042" y="-781.64844"/><text x="-559.16882" y="-289.03656"><tspan x="-559.16882" y="-289.03656"/></text><text transform="scale(4.0128 .2492)" x="57.731766" y="-1508.9949"/><text x="538.88123" y="-505.50656"><tspan x="538.88123" y="-505.50656"/></text><text transform="scale(4.0128 .2492)" x="331.37039" y="-2377.6704"/><text x="1120.1512" y="-585.50653"><tspan x="1120.1512" y="-585.50653"/></text><text transform="scale(4.0128 .2492)" x="476.2196" y="-2698.6987"/><text x="731.03125" y="-1057.9066"><tspan x="731.03125" y="-1057.9066"/></text><text transform="scale(4.0128 .2492)" x="379.25009" y="-4594.3491"/><text x="1312.2913" y="-1137.9166"><tspan x="1312.2913" y="-1137.9166"/></text><text transform="scale(4.0128 .2492)" x="524.09937" y="-4915.3872"/><text x="-520.50879" y="276.80353"><tspan x="-520.50879" y="276.80353"/></text><text x="-68.858757" y="-27.776562"><tspan x="-68.858757" y="-27.776562"/></text><text transform="scale(4.0128 .2492)" x="179.92113" y="-460.61026"/><text x="512.41125" y="-107.77656"><tspan x="512.41125" y="-107.77656"/></text><text transform="scale(4.0128 .2492)" x="324.77042" y="-781.64844"/><text x="-559.16882" y="-289.03656"><tspan x="-559.16882" y="-289.03656"/></text><text transform="scale(4.0128 .2492)" x="57.731766" y="-1508.9949"/><text x="538.88123" y="-505.50656"><tspan x="538.88123" y="-505.50656"/></text><text transform="scale(4.0128 .2492)" x="331.37039" y="-2377.6704"/><text x="1120.1512" y="-585.50653"><tspan x="1120.1512" y="-585.50653"/></text><text transform="scale(4.0128 .2492)" x="476.2196" y="-2698.6987"/><text x="731.03125" y="-1057.9066"><tspan x="731.03125" y="-1057.9066"/></text><text transform="scale(4.0128 .2492)" x="379.25009" y="-4594.3491"/><text x="1312.2913" y="-1137.9166"><tspan x="1312.2913" y="-1137.9166"/></text><text transform="scale(4.0128 .2492)" x="524.09937" y="-4915.3872"/><text x="-520.50879" y="276.80353"><tspan x="-520.50879" y="276.80353"/></text><text x="-31.851492" y="812.78375"><tspan x="-31.851492" y="812.78375"/></text><text transform="scale(4.0128 .2492)" x="189.14342" y="2912.3962"/><text x="549.41858" y="732.78375"><tspan x="549.41858" y="732.78375"/></text><text transform="scale(4.0128 .2492)" x="333.99268" y="2591.3679"/><text x="-522.1615" y="551.52277"><tspan x="-522.1615" y="551.52277"/></text><text transform="scale(4.0128 .2492)" x="66.954041" y="1864.0115"/><text x="575.88855" y="335.05371"><tspan x="575.88855" y="335.05371"/></text><text transform="scale(4.0128 .2492)" x="340.59262" y="995.34589"/><text x="1157.1586" y="255.04372"><tspan x="1157.1586" y="255.04372"/></text><text transform="scale(4.0128 .2492)" x="485.44193" y="674.30762"/><text x="768.03857" y="-217.35629"><tspan x="768.03857" y="-217.35629"/></text><text transform="scale(4.0128 .2492)" x="388.47238" y="-1221.3428"/><text x="1349.2986" y="-297.35632"><tspan x="1349.2986" y="-297.35632"/></text><text transform="scale(4.0128 .2492)" x="533.32172" y="-1542.3712"/><g transform="translate(-761.49 581.42)"><text x="277.98999" y="535.94"><tspan x="277.98999" y="535.94"/></text><text x="-860.84003" y="11.553"><tspan x="-860.84003" y="11.553"/></text><text x="-3219.6699" y="289.67001"><tspan x="-3219.6699" y="289.67001"/></text><text x="-2931.46" y="62.380001"><tspan x="-2931.46" y="62.380001"/></text><text x="1263.14" y="-194.52"><tspan x="1263.14" y="-194.52"/></text><text x="-864.78998" y="-49.48"><tspan x="-864.78998" y="-49.48"/></text><text x="-3223.6201" y="228.64"><tspan x="-3223.6201" y="228.64"/></text><text x="-2935.4099" y="1.35"><tspan x="-2935.4099" y="1.35"/></text></g><text x="-68.858757" y="-27.776562"><tspan x="-68.858757" y="-27.776562"/></text><text transform="scale(4.0128 .2492)" x="179.92113" y="-460.61026"/><text x="512.41125" y="-107.77656"><tspan x="512.41125" y="-107.77656"/></text><text transform="scale(4.0128 .2492)" x="324.77042" y="-781.64844"/><text x="-559.16882" y="-289.03656"><tspan x="-559.16882" y="-289.03656"/></text><text transform="scale(4.0128 .2492)" x="57.731766" y="-1508.9949"/><text x="538.88123" y="-505.50656"><tspan x="538.88123" y="-505.50656"/></text><text transform="scale(4.0128 .2492)" x="331.37039" y="-2377.6704"/><text x="1120.1512" y="-585.50653"><tspan x="1120.1512" y="-585.50653"/></text><text transform="scale(4.0128 .2492)" x="476.2196" y="-2698.6987"/><text x="731.03125" y="-1057.9066"><tspan x="731.03125" y="-1057.9066"/></text><text transform="scale(4.0128 .2492)" x="379.25009" y="-4594.3491"/><text x="1312.2913" y="-1137.9166"><tspan x="1312.2913" y="-1137.9166"/></text><text transform="scale(4.0128 .2492)" x="524.09937" y="-4915.3872"/><text x="-520.50879" y="276.80353"><tspan x="-520.50879" y="276.80353"/></text><text x="-68.858757" y="-27.776562"><tspan x="-68.858757" y="-27.776562"/></text><text transform="scale(4.0128 .2492)" x="179.92113" y="-460.61026"/><text x="512.41125" y="-107.77656"><tspan x="512.41125" y="-107.77656"/></text><text transform="scale(4.0128 .2492)" x="324.77042" y="-781.64844"/><text x="-559.16882" y="-289.03656"><tspan x="-559.16882" y="-289.03656"/></text><text transform="scale(4.0128 .2492)" x="57.731766" y="-1508.9949"/><text x="538.88123" y="-505.50656"><tspan x="538.88123" y="-505.50656"/></text><text transform="scale(4.0128 .2492)" x="331.37039" y="-2377.6704"/><text x="1120.1512" y="-585.50653"><tspan x="1120.1512" y="-585.50653"/></text><text transform="scale(4.0128 .2492)" x="476.2196" y="-2698.6987"/><text x="731.03125" y="-1057.9066"><tspan x="731.03125" y="-1057.9066"/></text><text transform="scale(4.0128 .2492)" x="379.25009" y="-4594.3491"/><text x="1312.2913" y="-1137.9166"><tspan x="1312.2913" y="-1137.9166"/></text><text transform="scale(4.0128 .2492)" x="524.09937" y="-4915.3872"/><text x="-520.50879" y="276.80353"><tspan x="-520.50879" y="276.80353"/></text><text x="-31.851492" y="812.78375"><tspan x="-31.851492" y="812.78375"/></text><text transform="scale(4.0128 .2492)" x="189.14342" y="2912.3962"/><text x="549.41858" y="732.78375"><tspan x="549.41858" y="732.78375"/></text><text transform="scale(4.0128 .2492)" x="333.99268" y="2591.3679"/><text x="-522.1615" y="551.52277"><tspan x="-522.1615" y="551.52277"/></text><text transform="scale(4.0128 .2492)" x="66.954041" y="1864.0115"/><text x="575.88855" y="335.05371"><tspan x="575.88855" y="335.05371"/></text><text transform="scale(4.0128 .2492)" x="340.59262" y="995.34589"/><text x="1157.1586" y="255.04372"><tspan x="1157.1586" y="255.04372"/></text><text transform="scale(4.0128 .2492)" x="485.44193" y="674.30762"/><text x="768.03857" y="-217.35629"><tspan x="768.03857" y="-217.35629"/></text><text transform="scale(4.0128 .2492)" x="388.47238" y="-1221.3428"/><text x="1349.2986" y="-297.35632"><tspan x="1349.2986" y="-297.35632"/></text><text transform="scale(4.0128 .2492)" x="533.32172" y="-1542.3712"/><g transform="translate(-761.49 581.42)"><text x="277.98999" y="535.94"><tspan x="277.98999" y="535.94"/></text><text x="-860.84003" y="11.553"><tspan x="-860.84003" y="11.553"/></text><text x="-3219.6699" y="289.67001"><tspan x="-3219.6699" y="289.67001"/></text><text x="-2931.46" y="62.380001"><tspan x="-2931.46" y="62.380001"/></text><text x="1263.14" y="-194.52"><tspan x="1263.14" y="-194.52"/></text><text x="-864.78998" y="-49.48"><tspan x="-864.78998" y="-49.48"/></text><text x="-3223.6201" y="228.64"><tspan x="-3223.6201" y="228.64"/></text><text x="-2935.4099" y="1.35"><tspan x="-2935.4099" y="1.35"/></text></g><g fill="#fff"><text x="581.00763" y="125.71573"><tspan fill="#fff" x="581.00763" y="125.71573"/></text><text x="-1447.5862" y="364.89893"><tspan fill="#fff" x="-1447.5862" y="364.89893"/></text><text x="-1199.7256" y="169.4381"><tspan fill="#fff" x="-1199.7256" y="169.4381"/></text><text x="2407.6304" y="-51.495895"><tspan fill="#fff" x="2407.6304" y="-51.495895"/></text><text x="577.61066" y="73.229904"><tspan fill="#fff" x="577.61066" y="73.229904"/></text><text x="-1450.9832" y="312.41309"><tspan fill="#fff" x="-1450.9832" y="312.41309"/></text><text x="-1203.1139" y="116.94372"><tspan fill="#fff" x="-1203.1139" y="116.94372"/></text><text x="564.90179" y="119.89182"><tspan fill="#fff" x="564.90179" y="119.89182"/></text><text x="-1533.5161" y="367.30771"><tspan fill="#fff" x="-1533.5161" y="367.30771"/></text><text x="-1277.1243" y="165.11911"><tspan fill="#fff" x="-1277.1243" y="165.11911"/></text><text x="2454.397" y="-63.419434"><tspan fill="#fff" x="2454.397" y="-63.419434"/></text><text x="561.38788" y="65.599426"><tspan fill="#fff" x="561.38788" y="65.599426"/></text><text x="-1537.03" y="313.01532"><tspan fill="#fff" x="-1537.03" y="313.01532"/></text><text x="-1280.6292" y="110.81787"><tspan fill="#fff" x="-1280.6292" y="110.81787"/></text><text opacity=".408" x="581.00763" y="125.71573"><tspan fill="#fff" x="581.00763" y="125.71573"/></text><text opacity=".408" x="-1447.5862" y="364.89893"><tspan fill="#fff" x="-1447.5862" y="364.89893"/></text><text opacity=".408" x="-1199.7256" y="169.4381"><tspan fill="#fff" x="-1199.7256" y="169.4381"/></text><text opacity=".408" x="2407.6304" y="-51.495895"><tspan fill="#fff" x="2407.6304" y="-51.495895"/></text><text opacity=".408" x="577.61066" y="73.229904"><tspan fill="#fff" x="577.61066" y="73.229904"/></text><text opacity=".408" x="-1450.9832" y="312.41309"><tspan fill="#fff" x="-1450.9832" y="312.41309"/></text><text opacity=".408" x="-1203.1139" y="116.94372"><tspan fill="#fff" x="-1203.1139" y="116.94372"/></text><text opacity=".408" x="564.90179" y="119.89182"><tspan fill="#fff" x="564.90179" y="119.89182"/></text><text opacity=".408" x="-1533.5161" y="367.30771"><tspan fill="#fff" x="-1533.5161" y="367.30771"/></text><text opacity=".408" x="-1277.1243" y="165.11911"><tspan fill="#fff" x="-1277.1243" y="165.11911"/></text><text opacity=".408" x="2454.397" y="-63.419434"><tspan fill="#fff" x="2454.397" y="-63.419434"/></text><text opacity=".408" x="561.38788" y="65.599426"><tspan fill="#fff" x="561.38788" y="65.599426"/></text><text opacity=".408" x="-1537.03" y="313.01532"><tspan fill="#fff" x="-1537.03" y="313.01532"/></text><text opacity=".408" x="-1280.6292" y="110.81787"><tspan fill="#fff" x="-1280.6292" y="110.81787"/></text></g><text x="2161.5044" y="224.85153"><tspan x="2161.5044" y="224.85153"/></text><text transform="scale(4.0128 .2492)" x="735.73047" y="553.1297"/><text x="2742.7744" y="144.85152"><tspan x="2742.7744" y="144.85152"/></text><text transform="scale(4.0128 .2492)" x="880.57977" y="232.10133"/><text x="1671.1945" y="-36.409473"><tspan x="1671.1945" y="-36.409473"/></text><text transform="scale(4.0128 .2492)" x="613.54114" y="-495.25494"/><text x="2769.2444" y="-252.87848"><tspan x="2769.2444" y="-252.87848"/></text><text transform="scale(4.0128 .2492)" x="887.17969" y="-1363.9207"/><text x="3350.5144" y="-332.88849"><tspan x="3350.5144" y="-332.88849"/></text><text transform="scale(4.0128 .2492)" x="1032.0291" y="-1684.9589"/><text x="2961.3945" y="-805.28851"><tspan x="2961.3945" y="-805.28851"/></text><text transform="scale(4.0128 .2492)" x="935.05945" y="-3580.6091"/><text x="3542.6545" y="-885.28851"><tspan x="3542.6545" y="-885.28851"/></text><text transform="scale(4.0128 .2492)" x="1079.9088" y="-3901.6375"/><text x="1709.8544" y="529.43152"><tspan x="1709.8544" y="529.43152"/></text><text x="2339.4028" y="289.61987"><tspan x="2339.4028" y="289.61987"/></text><text transform="scale(4.0128 .2492)" x="780.06299" y="813.04352"/><text x="2920.6729" y="209.61989"><tspan x="2920.6729" y="209.61989"/></text><text transform="scale(4.0128 .2492)" x="924.91223" y="492.00516"/><text x="1849.0928" y="28.359886"><tspan x="1849.0928" y="28.359886"/></text><text transform="scale(4.0128 .2492)" x="657.8736" y="-235.34113"/><text x="2947.1428" y="-188.11011"><tspan x="2947.1428" y="-188.11011"/></text><text transform="scale(4.0128 .2492)" x="931.51215" y="-1104.0068"/><text x="3528.4128" y="-268.11011"><tspan x="3528.4128" y="-268.11011"/></text><text transform="scale(4.0128 .2492)" x="1076.3615" y="-1425.035"/><text x="3139.2927" y="-740.51019"><tspan x="3139.2927" y="-740.51019"/></text><text transform="scale(4.0128 .2492)" x="979.39191" y="-3320.6753"/><text x="3720.5527" y="-820.5202"><tspan x="3720.5527" y="-820.5202"/></text><text transform="scale(4.0128 .2492)" x="1124.2412" y="-3641.7136"/><text x="1887.7528" y="594.19983"><tspan x="1887.7528" y="594.19983"/></text><text x="2161.5044" y="225.83186"><tspan x="2161.5044" y="225.83186"/></text><text transform="scale(4.0128 .2492)" x="735.73047" y="557.07367"/><text x="2742.7744" y="145.83186"><tspan x="2742.7744" y="145.83186"/></text><text transform="scale(4.0128 .2492)" x="880.57977" y="236.03526"/><text x="1671.1945" y="-35.428135"><tspan x="1671.1945" y="-35.428135"/></text><text transform="scale(4.0128 .2492)" x="613.54114" y="-491.31104"/><text x="2769.2444" y="-251.89813"><tspan x="2769.2444" y="-251.89813"/></text><text transform="scale(4.0128 .2492)" x="887.17969" y="-1359.9767"/><text x="3350.5144" y="-331.89813"><tspan x="3350.5144" y="-331.89813"/></text><text transform="scale(4.0128 .2492)" x="1032.0291" y="-1681.0049"/><text x="2961.3945" y="-804.29816"><tspan x="2961.3945" y="-804.29816"/></text><text transform="scale(4.0128 .2492)" x="935.05945" y="-3576.645"/><text x="3542.6545" y="-884.30817"><tspan x="3542.6545" y="-884.30817"/></text><text transform="scale(4.0128 .2492)" x="1079.9088" y="-3897.6836"/><text x="1709.8544" y="530.41187"><tspan x="1709.8544" y="530.41187"/></text><text x="872.82642" y="231.07187"><tspan x="872.82642" y="231.07187"/></text><text transform="scale(4.0128 .2492)" x="414.5903" y="578.10083"/><text x="1454.0964" y="151.07187"><tspan x="1454.0964" y="151.07187"/></text><text transform="scale(4.0128 .2492)" x="559.43958" y="257.06244"/><text x="382.51642" y="-30.188133"><tspan x="382.51642" y="-30.188133"/></text><text transform="scale(4.0128 .2492)" x="292.40094" y="-470.28381"/><text x="1480.5664" y="-246.65814"><tspan x="1480.5664" y="-246.65814"/></text><text transform="scale(4.0128 .2492)" x="566.03949" y="-1338.9495"/><text x="2061.8364" y="-326.65814"><tspan x="2061.8364" y="-326.65814"/></text><text transform="scale(4.0128 .2492)" x="710.88879" y="-1659.9778"/><text x="1672.7164" y="-799.05817"><tspan x="1672.7164" y="-799.05817"/></text><text transform="scale(4.0128 .2492)" x="613.91925" y="-3555.6179"/><text x="2253.9766" y="-879.06818"><tspan x="2253.9766" y="-879.06818"/></text><text transform="scale(4.0128 .2492)" x="758.76855" y="-3876.6562"/><text x="421.17642" y="535.65186"><tspan x="421.17642" y="535.65186"/></text><text x="2224.4023" y="214.51498"><tspan x="2224.4023" y="214.51498"/></text><text transform="scale(4.0128 .2492)" x="751.40472" y="511.65097"/><text x="2805.6724" y="134.51497"><tspan x="2805.6724" y="134.51497"/></text><text transform="scale(4.0128 .2492)" x="896.25397" y="190.62262"/><text x="1734.0923" y="-46.746025"><tspan x="1734.0923" y="-46.746025"/></text><text transform="scale(4.0128 .2492)" x="629.21533" y="-536.73364"/><text x="2832.1423" y="-263.21503"><tspan x="2832.1423" y="-263.21503"/></text><text transform="scale(4.0128 .2492)" x="902.85394" y="-1405.3993"/><text x="3413.4124" y="-343.22504"><tspan x="3413.4124" y="-343.22504"/></text><text transform="scale(4.0128 .2492)" x="1047.7032" y="-1726.4376"/><text x="3024.2925" y="-815.62506"><tspan x="3024.2925" y="-815.62506"/></text><text transform="scale(4.0128 .2492)" x="950.7337" y="-3622.0879"/><text x="3605.5525" y="-895.62506"><tspan x="3605.5525" y="-895.62506"/></text><text transform="scale(4.0128 .2492)" x="1095.583" y="-3943.1162"/><text x="1772.7523" y="519.09497"><tspan x="1772.7523" y="519.09497"/></text><text x="2363.2671" y="122.88543"><tspan x="2363.2671" y="122.88543"/></text><text transform="scale(4.0128 .2492)" x="786.01001" y="143.96803"/><text x="2944.5371" y="42.885426"><tspan x="2944.5371" y="42.885426"/></text><text transform="scale(4.0128 .2492)" x="930.85925" y="-177.07031"/><text x="1872.9572" y="-138.37457"><tspan x="1872.9572" y="-138.37457"/></text><text transform="scale(4.0128 .2492)" x="663.82068" y="-904.41663"/><text x="2971.0071" y="-354.84457"><tspan x="2971.0071" y="-354.84457"/></text><text transform="scale(4.0128 .2492)" x="937.45923" y="-1773.0823"/><text x="3552.2771" y="-434.84457"><tspan x="3552.2771" y="-434.84457"/></text><text transform="scale(4.0128 .2492)" x="1082.3086" y="-2094.1104"/><text x="3163.1572" y="-907.24463"><tspan x="3163.1572" y="-907.24463"/></text><text transform="scale(4.0128 .2492)" x="985.33899" y="-3989.7507"/><text x="3744.4172" y="-987.25464"><tspan x="3744.4172" y="-987.25464"/></text><text transform="scale(4.0128 .2492)" x="1130.1884" y="-4310.7896"/><text x="1911.6172" y="427.46542"><tspan x="1911.6172" y="427.46542"/></text><text x="2282.9958" y="164.95988"><tspan x="2282.9958" y="164.95988"/></text><text transform="scale(4.0128 .2492)" x="766.00635" y="312.79529"/><text x="2864.2661" y="84.959885"><tspan x="2864.2661" y="84.959885"/></text><text transform="scale(4.0128 .2492)" x="910.85559" y="-8.233071"/><text x="1792.6859" y="-96.301117"><tspan x="1792.6859" y="-96.301117"/></text><text transform="scale(4.0128 .2492)" x="643.81696" y="-735.58936"/><text x="2890.7361" y="-312.77011"><tspan x="2890.7361" y="-312.77011"/></text><text transform="scale(4.0128 .2492)" x="917.45551" y="-1604.255"/><text x="3472.0061" y="-392.78012"><tspan x="3472.0061" y="-392.78012"/></text><text transform="scale(4.0128 .2492)" x="1062.3048" y="-1925.2933"/><text x="3082.886" y="-865.18018"><tspan x="3082.886" y="-865.18018"/></text><text transform="scale(4.0128 .2492)" x="965.33527" y="-3820.9436"/><text x="3664.146" y="-945.18018"><tspan x="3664.146" y="-945.18018"/></text><text transform="scale(4.0128 .2492)" x="1110.1846" y="-4141.9722"/><text x="1831.3459" y="469.53989"><tspan x="1831.3459" y="469.53989"/></text><text x="2302.6394" y="212.98088"><tspan x="2302.6394" y="212.98088"/></text><text transform="scale(4.0128 .2492)" x="770.90155" y="505.50613"/><text x="2883.9097" y="132.98088"><tspan x="2883.9097" y="132.98088"/></text><text transform="scale(4.0128 .2492)" x="915.75079" y="184.46799"/><text x="1812.3295" y="-48.279091"><tspan x="1812.3295" y="-48.279091"/></text><text transform="scale(4.0128 .2492)" x="648.71216" y="-542.87836"/><text x="2910.3796" y="-264.74908"><tspan x="2910.3796" y="-264.74908"/></text><text transform="scale(4.0128 .2492)" x="922.35071" y="-1411.554"/><text x="3491.6497" y="-344.74908"><tspan x="3491.6497" y="-344.74908"/></text><text transform="scale(4.0128 .2492)" x="1067.2001" y="-1732.5824"/><text x="3102.5295" y="-817.14911"><tspan x="3102.5295" y="-817.14911"/></text><text transform="scale(4.0128 .2492)" x="970.23047" y="-3628.2324"/><text x="3683.7896" y="-897.15912"><tspan x="3683.7896" y="-897.15912"/></text><text transform="scale(4.0128 .2492)" x="1115.0798" y="-3949.271"/><text x="1850.9895" y="517.56097"><tspan x="1850.9895" y="517.56097"/></text><text x="2252.0154" y="189.04985"><tspan x="2252.0154" y="189.04985"/></text><text transform="scale(4.0128 .2492)" x="758.28595" y="409.47522"/><text x="2833.2854" y="109.04986"><tspan x="2833.2854" y="109.04986"/></text><text transform="scale(4.0128 .2492)" x="903.13519" y="88.437073"/><text x="1761.7054" y="-72.210121"><tspan x="1761.7054" y="-72.210121"/></text><text transform="scale(4.0128 .2492)" x="636.09656" y="-638.9093"/><text x="2859.7554" y="-288.68011"><tspan x="2859.7554" y="-288.68011"/></text><text transform="scale(4.0128 .2492)" x="909.73517" y="-1507.585"/><text x="3441.0254" y="-368.68011"><tspan x="3441.0254" y="-368.68011"/></text><text transform="scale(4.0128 .2492)" x="1054.5845" y="-1828.6133"/><text x="3051.9055" y="-841.08014"><tspan x="3051.9055" y="-841.08014"/></text><text transform="scale(4.0128 .2492)" x="957.61487" y="-3724.2637"/><text x="3633.1655" y="-921.09015"><tspan x="3633.1655" y="-921.09015"/></text><text transform="scale(4.0128 .2492)" x="1102.4642" y="-4045.302"/><text x="1800.3655" y="493.62994"><tspan x="1800.3655" y="493.62994"/></text><text x="2256.0835" y="-30.584694"><tspan x="2256.0835" y="-30.584694"/></text><text transform="scale(4.0128 .2492)" x="759.29968" y="-471.87885"/><text x="2837.3535" y="-110.58469"><tspan x="2837.3535" y="-110.58469"/></text><text transform="scale(4.0128 .2492)" x="904.14899" y="-792.91699"/><text x="1765.7734" y="-291.84467"><tspan x="1765.7734" y="-291.84467"/></text><text transform="scale(4.0128 .2492)" x="637.11035" y="-1520.2634"/><text x="2863.8235" y="-508.31467"><tspan x="2863.8235" y="-508.31467"/></text><text transform="scale(4.0128 .2492)" x="910.7489" y="-2388.9387"/><text x="3445.0935" y="-588.3147"><tspan x="3445.0935" y="-588.3147"/></text><text transform="scale(4.0128 .2492)" x="1055.5983" y="-2709.9673"/><text x="3055.9736" y="-1060.7146"><tspan x="3055.9736" y="-1060.7146"/></text><text transform="scale(4.0128 .2492)" x="958.62866" y="-4605.6177"/><text x="3637.2336" y="-1140.7246"><tspan x="3637.2336" y="-1140.7246"/></text><text transform="scale(4.0128 .2492)" x="1103.478" y="-4926.6562"/><g transform="translate(1526.4 -802.3)"><text x="277.98999" y="1076.3"><tspan x="277.98999" y="1076.3"/></text><text x="-1666.79" y="907.01001"><tspan x="-1666.79" y="907.01001"/></text></g><text transform="scale(4.0128 .2492)" x="282.75217" y="-142.72035"/><text x="2198.3857" y="240.34087"><tspan x="2198.3857" y="240.34087"/></text><text transform="scale(4.0128 .2492)" x="744.92139" y="615.29565"/><text x="2779.6558" y="160.34087"><tspan x="2779.6558" y="160.34087"/></text><text transform="scale(4.0128 .2492)" x="889.77063" y="294.25726"/><text x="1708.0758" y="-20.919136"><tspan x="1708.0758" y="-20.919136"/></text><text transform="scale(4.0128 .2492)" x="622.73199" y="-433.08899"/><text x="2806.1257" y="-237.38913"><tspan x="2806.1257" y="-237.38913"/></text><text transform="scale(4.0128 .2492)" x="896.37054" y="-1301.7546"/><text x="3387.3958" y="-317.38913"><tspan x="3387.3958" y="-317.38913"/></text><text transform="scale(4.0128 .2492)" x="1041.2198" y="-1622.783"/><text x="2998.2759" y="-789.78918"><tspan x="2998.2759" y="-789.78918"/></text><text transform="scale(4.0128 .2492)" x="944.25031" y="-3518.4231"/><text x="3579.5359" y="-869.79919"><tspan x="3579.5359" y="-869.79919"/></text><text transform="scale(4.0128 .2492)" x="1089.0996" y="-3839.4614"/><text x="1746.7357" y="544.92084"><tspan x="1746.7357" y="544.92084"/></text><text x="342.97763" y="570.23987"><tspan x="342.97763" y="570.23987"/></text><text transform="scale(4.0128 .2492)" x="403.19742" y="1725.3878"/><text x="2233.0977" y="252.07983"><tspan x="2233.0977" y="252.07983"/></text><text transform="scale(4.0128 .2492)" x="753.57159" y="662.4032"/><text x="2814.3677" y="172.07983"><tspan x="2814.3677" y="172.07983"/></text><text transform="scale(4.0128 .2492)" x="898.4209" y="341.36505"/><text x="1742.7876" y="-9.180144"><tspan x="1742.7876" y="-9.180144"/></text><text transform="scale(4.0128 .2492)" x="631.38226" y="-385.98132"/><text x="2840.8376" y="-225.65015"><tspan x="2840.8376" y="-225.65015"/></text><text transform="scale(4.0128 .2492)" x="905.02081" y="-1254.6569"/><text x="3422.1077" y="-305.65012"><tspan x="3422.1077" y="-305.65012"/></text><text transform="scale(4.0128 .2492)" x="1049.8701" y="-1575.6853"/><text x="3032.9878" y="-778.05017"><tspan x="3032.9878" y="-778.05017"/></text><text transform="scale(4.0128 .2492)" x="952.90057" y="-3471.3354"/><text x="3614.2478" y="-858.06018"><tspan x="3614.2478" y="-858.06018"/></text><text transform="scale(4.0128 .2492)" x="1097.7499" y="-3792.3738"/><text x="1781.4476" y="556.65991"><tspan x="1781.4476" y="556.65991"/></text><path d="m255.81 111.82c-44.1 0-79.97 37.19-79.97 83.47 0 23.87 9.55 45.45 24.85 60.75l69.61 69.62c-4.75.58-9.58.88-14.49.88-27.91 0-53.72-9.63-74.56-25.9-32.22 8.03-58.93 49.13-57.71 99.54l60.75 60.75c21.62 7.15 44.73 11.03 68.75 11.03 107.51 0 196.91-77.51 215.4-179.68l-157.27-157.27c-14.38-14.38-33.89-23.19-55.36-23.19z" fill-rule="evenodd" opacity=".25"/><path d="m255.81 111.82c-44.104 0-79.969 37.187-79.969 83.469 0 46.281 35.865 83.93 79.969 83.93s79.969-37.649 79.969-83.93-35.865-83.469-79.969-83.469zm-74.563 188.82c-32.22 8.0286-58.934 49.135-57.714 99.543h264.93c1.1539-50.418-25.801-91.538-58.091-99.543-20.84 16.269-46.647 25.902-74.563 25.902s-53.723-9.6334-74.563-25.902z" fill="#fff" fill-rule="evenodd"/></svg>